<svg width="0" height="0" style="position:absolute"><symbol fill="none" viewBox="0 0 278 36" id="logo" xmlns="http://www.w3.org/2000/svg"><path fill="#3A423A" d="M9.485 0c1.008 0 1.89.05 2.647.14.753.093 1.464.219 2.13.38.663.163 1.326.352 1.979.569.66.218 1.389.457 2.2.72l-.092 2.435a51.187 51.187 0 0 0-1.763-.58 20.947 20.947 0 0 0-1.868-.487 21.144 21.144 0 0 0-2.071-.337 20.348 20.348 0 0 0-2.36-.127c-.382 0-.826.061-1.331.186a4.62 4.62 0 0 0-1.443.627 3.988 3.988 0 0 0-1.168 1.157c-.32.482-.48 1.077-.48 1.784 0 .666.26 1.443.779 2.332.517.887 1.387 1.998 2.61 3.327l4.032 4.403c.888.927 1.738 1.843 2.554 2.747a27.7 27.7 0 0 1 2.145 2.666c.609.873 1.097 1.74 1.466 2.595.367.86.549 1.706.549 2.541 0 1.622-.294 3-.881 4.138-.588 1.135-1.353 2.054-2.293 2.757a9.373 9.373 0 0 1-3.196 1.54 13.43 13.43 0 0 1-3.574.487c-1.037 0-2.008-.054-2.91-.172-.9-.116-1.757-.285-2.573-.511a16.446 16.446 0 0 1-2.351-.833A21.453 21.453 0 0 1 0 33.334l.299-2.501c.595.277 1.204.56 1.833.847.624.285 1.26.538 1.911.762a16.22 16.22 0 0 0 1.982.548c.672.135 1.345.209 2.015.209 2.247 0 3.942-.47 5.088-1.406 1.143-.933 1.717-2.287 1.717-4.066 0-.543-.12-1.089-.353-1.65a9.958 9.958 0 0 0-.976-1.724 20.818 20.818 0 0 0-1.452-1.843c-.56-.634-1.153-1.297-1.777-1.993l-4.08-4.496a191.016 191.016 0 0 1-2.61-3.293c-.702-.912-1.263-1.722-1.686-2.435-.418-.712-.716-1.364-.891-1.958a6.522 6.522 0 0 1-.265-1.868c0-1.25.253-2.29.755-3.118a5.794 5.794 0 0 1 1.994-1.98C4.33.872 5.262.52 6.3.312 7.34.106 8.4 0 9.485 0Zm22.473 3.242V23.82h2.784c1.675 0 3.194-.189 4.552-.57 1.358-.38 2.515-.99 3.475-1.83.957-.838 1.694-1.909 2.208-3.21.513-1.304.77-2.887.77-4.746 0-1.418-.135-2.656-.398-3.715-.262-1.06-.639-1.968-1.121-2.722a6.754 6.754 0 0 0-1.73-1.863 8.914 8.914 0 0 0-2.22-1.166c-.806-.29-1.67-.49-2.592-.596a24.833 24.833 0 0 0-2.853-.16h-2.875Zm0 22.82V35H27V1h8.42c2.372 0 4.402.204 6.091.608 1.692.403 3.11.943 4.258 1.612 1.147.671 2.066 1.444 2.762 2.322.693.877 1.224 1.783 1.584 2.719.364.938.6 1.878.715 2.811.112.94.17 1.813.17 2.62 0 .795-.065 1.65-.194 2.572a10.956 10.956 0 0 1-.768 2.755 10.61 10.61 0 0 1-1.632 2.642c-.7.846-1.63 1.597-2.786 2.251-1.152.657-2.566 1.178-4.231 1.568-1.67.388-3.657.582-5.968.582h-3.463Zm25.515 2.285h16.524L65.656 8.593l-8.183 19.754ZM82 35h-5.221l-1.855-4.41h-18.38L54.735 35H52L64.321 5.37 62.514 1h5.289L82 35Zm22.076-35c2.629 0 5.066.437 7.314 1.31 2.245.874 4.235 2.083 5.973 3.629l-1.269 1.715a17.77 17.77 0 0 0-2.315-1.69 17.613 17.613 0 0 0-2.673-1.36 18.33 18.33 0 0 0-2.925-.901 14.19 14.19 0 0 0-3.062-.337c-2.207 0-4.168.408-5.875 1.226a12.493 12.493 0 0 0-4.31 3.362c-1.163 1.422-2.045 3.083-2.65 4.983-.607 1.904-.907 3.944-.907 6.123 0 2.133.298 4.14.894 6.028.596 1.884 1.474 3.538 2.632 4.958 1.156 1.423 2.589 2.546 4.298 3.374 1.707.825 3.663 1.24 5.872 1.24a16.33 16.33 0 0 0 3.221-.326 16.821 16.821 0 0 0 3.149-.946 16.338 16.338 0 0 0 2.872-1.53 12.981 12.981 0 0 0 2.392-2.065l1.293 1.69c-1.784 1.733-3.858 3.084-6.213 4.06-2.361.97-4.933 1.457-7.711 1.457-1.678 0-3.289-.211-4.832-.634a17.752 17.752 0 0 1-4.322-1.823 18.402 18.402 0 0 1-3.648-2.814A17.781 17.781 0 0 1 88.46 27.1a18.345 18.345 0 0 1-1.814-4.275A17.455 17.455 0 0 1 86 18.06c0-1.653.216-3.255.647-4.799a18.446 18.446 0 0 1 1.814-4.324A17.964 17.964 0 0 1 99.244.65a17.821 17.821 0 0 1 4.832-.65ZM147 1v2.242h-15.947v10.312h15.463v2.24h-15.463V32.76H147V35h-21V1h21Zm22.008 31.76H183V35h-19V1h5.008v31.76Zm21.463-4.413h16.525l-8.342-19.754-8.183 19.754ZM215 35h-5.219l-1.857-4.41h-18.381L187.734 35H185l12.322-29.63L195.513 1h5.291L215 35Zm33 0h-3.832L225.363 8.593V35h-2.327V5.321L220 1h6.115l19.534 27.485V1H248v34Zm30-34v2.242h-15.949v10.312h15.465v2.24h-15.465V32.76H278V35h-21V1h21Z"/></symbol></svg>